<mxfile host="Electron" modified="2025-07-04T15:17:07.747Z" agent="Mozilla/5.0 (Windows NT 10.0; Win64; x64) AppleWebKit/537.36 (KHTML, like Gecko) draw.io/24.0.4 Chrome/120.0.6099.109 Electron/28.1.0 Safari/537.36" etag="50qhWNWChUKV1jFznEco" version="24.0.4" type="device">
  <diagram name="Page-1" id="QD_JOMZgq2UKG0qrrXkf">
    <mxGraphModel dx="1501" dy="713" grid="1" gridSize="10" guides="1" tooltips="1" connect="1" arrows="1" fold="1" page="1" pageScale="1" pageWidth="850" pageHeight="1100" math="0" shadow="0">
      <root>
        <mxCell id="0" />
        <mxCell id="1" parent="0" />
        <mxCell id="LiLLFiUzIS2DZXrTLX4k-4" style="edgeStyle=orthogonalEdgeStyle;rounded=0;orthogonalLoop=1;jettySize=auto;html=1;" edge="1" parent="1" source="LiLLFiUzIS2DZXrTLX4k-1" target="LiLLFiUzIS2DZXrTLX4k-3">
          <mxGeometry relative="1" as="geometry" />
        </mxCell>
        <mxCell id="LiLLFiUzIS2DZXrTLX4k-1" value="start" style="ellipse;whiteSpace=wrap;html=1;" vertex="1" parent="1">
          <mxGeometry x="50" y="50" width="120" height="80" as="geometry" />
        </mxCell>
        <mxCell id="LiLLFiUzIS2DZXrTLX4k-2" value="end" style="ellipse;whiteSpace=wrap;html=1;" vertex="1" parent="1">
          <mxGeometry x="300" y="890" width="120" height="80" as="geometry" />
        </mxCell>
        <mxCell id="LiLLFiUzIS2DZXrTLX4k-6" value="" style="edgeStyle=orthogonalEdgeStyle;rounded=0;orthogonalLoop=1;jettySize=auto;html=1;entryX=0.5;entryY=0;entryDx=0;entryDy=0;" edge="1" parent="1" source="LiLLFiUzIS2DZXrTLX4k-3" target="LiLLFiUzIS2DZXrTLX4k-5">
          <mxGeometry relative="1" as="geometry" />
        </mxCell>
        <mxCell id="LiLLFiUzIS2DZXrTLX4k-3" value="fetch reqeust" style="rounded=0;whiteSpace=wrap;html=1;" vertex="1" parent="1">
          <mxGeometry x="260" y="50" width="120" height="60" as="geometry" />
        </mxCell>
        <mxCell id="LiLLFiUzIS2DZXrTLX4k-9" value="yes" style="edgeStyle=orthogonalEdgeStyle;rounded=0;orthogonalLoop=1;jettySize=auto;html=1;" edge="1" parent="1" source="LiLLFiUzIS2DZXrTLX4k-5" target="LiLLFiUzIS2DZXrTLX4k-39">
          <mxGeometry relative="1" as="geometry">
            <mxPoint x="710" y="140" as="targetPoint" />
          </mxGeometry>
        </mxCell>
        <mxCell id="LiLLFiUzIS2DZXrTLX4k-60" value="no" style="edgeStyle=orthogonalEdgeStyle;rounded=0;orthogonalLoop=1;jettySize=auto;html=1;exitX=0;exitY=0.5;exitDx=0;exitDy=0;entryX=0.5;entryY=0;entryDx=0;entryDy=0;" edge="1" parent="1" source="LiLLFiUzIS2DZXrTLX4k-5" target="LiLLFiUzIS2DZXrTLX4k-59">
          <mxGeometry relative="1" as="geometry">
            <Array as="points">
              <mxPoint x="510" y="90" />
              <mxPoint x="510" y="140" />
              <mxPoint x="270" y="140" />
            </Array>
          </mxGeometry>
        </mxCell>
        <mxCell id="LiLLFiUzIS2DZXrTLX4k-5" value="logged in" style="rhombus;whiteSpace=wrap;html=1;rounded=0;" vertex="1" parent="1">
          <mxGeometry x="525" y="35" width="110" height="110" as="geometry" />
        </mxCell>
        <mxCell id="LiLLFiUzIS2DZXrTLX4k-16" style="edgeStyle=orthogonalEdgeStyle;rounded=0;orthogonalLoop=1;jettySize=auto;html=1;exitX=0.5;exitY=1;exitDx=0;exitDy=0;" edge="1" parent="1" source="LiLLFiUzIS2DZXrTLX4k-8">
          <mxGeometry relative="1" as="geometry">
            <mxPoint x="530" y="200" as="targetPoint" />
          </mxGeometry>
        </mxCell>
        <mxCell id="LiLLFiUzIS2DZXrTLX4k-28" style="edgeStyle=orthogonalEdgeStyle;rounded=0;orthogonalLoop=1;jettySize=auto;html=1;entryX=0.5;entryY=0;entryDx=0;entryDy=0;" edge="1" parent="1" target="LiLLFiUzIS2DZXrTLX4k-19">
          <mxGeometry relative="1" as="geometry">
            <mxPoint x="470" y="230" as="sourcePoint" />
          </mxGeometry>
        </mxCell>
        <mxCell id="LiLLFiUzIS2DZXrTLX4k-41" value="" style="edgeStyle=orthogonalEdgeStyle;rounded=0;orthogonalLoop=1;jettySize=auto;html=1;" edge="1" parent="1" source="LiLLFiUzIS2DZXrTLX4k-39" target="LiLLFiUzIS2DZXrTLX4k-40">
          <mxGeometry relative="1" as="geometry" />
        </mxCell>
        <mxCell id="LiLLFiUzIS2DZXrTLX4k-39" value="get the number of unread notifications" style="rounded=0;whiteSpace=wrap;html=1;" vertex="1" parent="1">
          <mxGeometry x="650" y="160" width="120" height="60" as="geometry" />
        </mxCell>
        <mxCell id="LiLLFiUzIS2DZXrTLX4k-57" value="no" style="edgeStyle=orthogonalEdgeStyle;rounded=0;orthogonalLoop=1;jettySize=auto;html=1;" edge="1" parent="1" source="LiLLFiUzIS2DZXrTLX4k-40" target="LiLLFiUzIS2DZXrTLX4k-54">
          <mxGeometry x="-0.7892" relative="1" as="geometry">
            <mxPoint x="130" y="540" as="targetPoint" />
            <mxPoint as="offset" />
          </mxGeometry>
        </mxCell>
        <mxCell id="LiLLFiUzIS2DZXrTLX4k-58" value="yes" style="edgeStyle=orthogonalEdgeStyle;rounded=0;orthogonalLoop=1;jettySize=auto;html=1;exitX=1;exitY=0.5;exitDx=0;exitDy=0;" edge="1" parent="1" source="LiLLFiUzIS2DZXrTLX4k-40" target="LiLLFiUzIS2DZXrTLX4k-42">
          <mxGeometry relative="1" as="geometry" />
        </mxCell>
        <mxCell id="LiLLFiUzIS2DZXrTLX4k-40" value="request is post" style="rhombus;whiteSpace=wrap;html=1;rounded=0;" vertex="1" parent="1">
          <mxGeometry x="420" y="230" width="80" height="80" as="geometry" />
        </mxCell>
        <mxCell id="LiLLFiUzIS2DZXrTLX4k-45" value="" style="edgeStyle=orthogonalEdgeStyle;rounded=0;orthogonalLoop=1;jettySize=auto;html=1;" edge="1" parent="1" source="LiLLFiUzIS2DZXrTLX4k-42" target="LiLLFiUzIS2DZXrTLX4k-44">
          <mxGeometry relative="1" as="geometry" />
        </mxCell>
        <mxCell id="LiLLFiUzIS2DZXrTLX4k-42" value="get the image" style="whiteSpace=wrap;html=1;rounded=0;" vertex="1" parent="1">
          <mxGeometry x="580" y="320" width="120" height="60" as="geometry" />
        </mxCell>
        <mxCell id="LiLLFiUzIS2DZXrTLX4k-47" value="" style="edgeStyle=orthogonalEdgeStyle;rounded=0;orthogonalLoop=1;jettySize=auto;html=1;" edge="1" parent="1" source="LiLLFiUzIS2DZXrTLX4k-44" target="LiLLFiUzIS2DZXrTLX4k-46">
          <mxGeometry relative="1" as="geometry" />
        </mxCell>
        <mxCell id="LiLLFiUzIS2DZXrTLX4k-44" value="save it in the data base" style="whiteSpace=wrap;html=1;rounded=0;" vertex="1" parent="1">
          <mxGeometry x="580" y="400" width="120" height="60" as="geometry" />
        </mxCell>
        <mxCell id="LiLLFiUzIS2DZXrTLX4k-49" value="" style="edgeStyle=orthogonalEdgeStyle;rounded=0;orthogonalLoop=1;jettySize=auto;html=1;" edge="1" parent="1" source="LiLLFiUzIS2DZXrTLX4k-46" target="LiLLFiUzIS2DZXrTLX4k-48">
          <mxGeometry relative="1" as="geometry" />
        </mxCell>
        <mxCell id="LiLLFiUzIS2DZXrTLX4k-46" value="save the id in the session" style="whiteSpace=wrap;html=1;rounded=0;" vertex="1" parent="1">
          <mxGeometry x="580" y="480" width="120" height="60" as="geometry" />
        </mxCell>
        <mxCell id="LiLLFiUzIS2DZXrTLX4k-51" value="" style="edgeStyle=orthogonalEdgeStyle;rounded=0;orthogonalLoop=1;jettySize=auto;html=1;" edge="1" parent="1" source="LiLLFiUzIS2DZXrTLX4k-48" target="LiLLFiUzIS2DZXrTLX4k-50">
          <mxGeometry relative="1" as="geometry" />
        </mxCell>
        <mxCell id="LiLLFiUzIS2DZXrTLX4k-48" value="predict the disease using the ML model" style="whiteSpace=wrap;html=1;rounded=0;" vertex="1" parent="1">
          <mxGeometry x="580" y="560" width="120" height="60" as="geometry" />
        </mxCell>
        <mxCell id="LiLLFiUzIS2DZXrTLX4k-53" value="" style="edgeStyle=orthogonalEdgeStyle;rounded=0;orthogonalLoop=1;jettySize=auto;html=1;" edge="1" parent="1" source="LiLLFiUzIS2DZXrTLX4k-50" target="LiLLFiUzIS2DZXrTLX4k-52">
          <mxGeometry relative="1" as="geometry" />
        </mxCell>
        <mxCell id="LiLLFiUzIS2DZXrTLX4k-50" value="get the diagonsis and the confidence of the diagnosis" style="whiteSpace=wrap;html=1;rounded=0;" vertex="1" parent="1">
          <mxGeometry x="580" y="640" width="120" height="60" as="geometry" />
        </mxCell>
        <mxCell id="LiLLFiUzIS2DZXrTLX4k-55" value="" style="edgeStyle=orthogonalEdgeStyle;rounded=0;orthogonalLoop=1;jettySize=auto;html=1;" edge="1" parent="1" source="LiLLFiUzIS2DZXrTLX4k-52" target="LiLLFiUzIS2DZXrTLX4k-54">
          <mxGeometry relative="1" as="geometry" />
        </mxCell>
        <mxCell id="LiLLFiUzIS2DZXrTLX4k-52" value="save the diagnosis and the confidence" style="whiteSpace=wrap;html=1;rounded=0;" vertex="1" parent="1">
          <mxGeometry x="580" y="720" width="120" height="60" as="geometry" />
        </mxCell>
        <mxCell id="LiLLFiUzIS2DZXrTLX4k-56" style="edgeStyle=orthogonalEdgeStyle;rounded=0;orthogonalLoop=1;jettySize=auto;html=1;" edge="1" parent="1" source="LiLLFiUzIS2DZXrTLX4k-54" target="LiLLFiUzIS2DZXrTLX4k-2">
          <mxGeometry relative="1" as="geometry" />
        </mxCell>
        <mxCell id="LiLLFiUzIS2DZXrTLX4k-54" value="redirect to the result page" style="whiteSpace=wrap;html=1;rounded=0;" vertex="1" parent="1">
          <mxGeometry x="210" y="690" width="120" height="60" as="geometry" />
        </mxCell>
        <mxCell id="LiLLFiUzIS2DZXrTLX4k-61" style="edgeStyle=orthogonalEdgeStyle;rounded=0;orthogonalLoop=1;jettySize=auto;html=1;entryX=0.5;entryY=0;entryDx=0;entryDy=0;" edge="1" parent="1" source="LiLLFiUzIS2DZXrTLX4k-59" target="LiLLFiUzIS2DZXrTLX4k-54">
          <mxGeometry relative="1" as="geometry" />
        </mxCell>
        <mxCell id="LiLLFiUzIS2DZXrTLX4k-59" value="render the upload image page" style="whiteSpace=wrap;html=1;rounded=0;" vertex="1" parent="1">
          <mxGeometry x="210" y="190" width="120" height="60" as="geometry" />
        </mxCell>
      </root>
    </mxGraphModel>
  </diagram>
</mxfile>
